<svg width="286" height="286" viewBox="0 0 286 286" fill="none" xmlns="http://www.w3.org/2000/svg">
<g filter="url(#filter0_d_8_1115)">
<mask id="mask0_8_1115" style="mask-type:luminance" maskUnits="userSpaceOnUse" x="4" y="0" width="278" height="278">
<path fill-rule="evenodd" clip-rule="evenodd" d="M4 0.00012207H282V278H4V0.00012207Z" fill="white"/>
</mask>
<g mask="url(#mask0_8_1115)">
<path fill-rule="evenodd" clip-rule="evenodd" d="M143 0.00012207C66.2326 0.00012207 4 62.2327 4 139C4 215.767 66.2326 278 143 278C219.767 278 282 215.767 282 139C282 62.2327 219.767 0.00012207 143 0.00012207Z" fill="#EFF3F9"/>
</g>
<path fill-rule="evenodd" clip-rule="evenodd" d="M109.924 231.359C99.9393 231.359 91.846 223.265 91.846 213.281C91.846 203.297 99.9393 195.203 109.924 195.203C119.908 195.203 128.002 203.297 128.002 213.281C128.002 223.265 119.908 231.359 109.924 231.359Z" fill="white"/>
<path fill-rule="evenodd" clip-rule="evenodd" d="M73.3662 193.943C70.4521 193.943 68.0891 191.581 68.0891 188.666C68.0891 185.752 70.4521 183.389 73.3662 183.389C76.2804 183.389 78.6434 185.752 78.6434 188.666C78.6434 191.581 76.2804 193.943 73.3662 193.943Z" fill="white"/>
<path fill-rule="evenodd" clip-rule="evenodd" d="M159.908 220.314C157.966 220.314 156.392 218.739 156.392 216.797C156.392 214.855 157.966 213.281 159.908 213.281C161.85 213.281 163.424 214.855 163.424 216.797C163.424 218.739 161.85 220.314 159.908 220.314Z" fill="white"/>
<path fill-rule="evenodd" clip-rule="evenodd" d="M208.568 54.2927C206.626 54.2927 205.052 52.7187 205.052 50.7767C205.052 48.8347 206.626 47.2607 208.568 47.2607C210.51 47.2607 212.084 48.8347 212.084 50.7767C212.084 52.7187 210.51 54.2927 208.568 54.2927Z" fill="white"/>
<path fill-rule="evenodd" clip-rule="evenodd" d="M192.822 86.2388H200.695V85.5535C200.695 83.2403 198.82 81.365 196.506 81.365H173.908C171.595 81.365 169.72 83.2403 169.72 85.5535V152.351H187.282V91.7787C187.282 88.7191 189.762 86.2388 192.822 86.2388Z" fill="#E0E8F6"/>
<mask id="mask1_8_1115" style="mask-type:luminance" maskUnits="userSpaceOnUse" x="4" y="0" width="278" height="278">
<path fill-rule="evenodd" clip-rule="evenodd" d="M4 278H282V0H4V278Z" fill="white"/>
</mask>
<g mask="url(#mask1_8_1115)">
<path fill-rule="evenodd" clip-rule="evenodd" d="M145.945 152.35H165.151V94.561H145.945V152.35Z" fill="#D0DBF0"/>
<path fill-rule="evenodd" clip-rule="evenodd" d="M193.643 78.1881H176.772C176.127 78.1881 175.605 77.6659 175.605 77.0207V70.1751C175.605 69.5307 176.127 69.0077 176.772 69.0077H193.643C194.288 69.0077 194.81 69.5307 194.81 70.1751V77.0207C194.81 77.6659 194.288 78.1881 193.643 78.1881Z" fill="#E0E8F6"/>
<path fill-rule="evenodd" clip-rule="evenodd" d="M141.784 152.35H102.684V53.9656C102.684 51.8067 104.712 50.2223 106.808 50.7445L139.268 58.8419C140.746 59.2107 141.784 60.5388 141.784 62.063V152.35Z" fill="#D0DBF0"/>
<path fill-rule="evenodd" clip-rule="evenodd" d="M85.3508 152.35V118.344C85.3508 115.294 87.823 112.822 90.873 112.822H97.136V152.35H85.3508Z" fill="#E0E8F6"/>
<path fill-rule="evenodd" clip-rule="evenodd" d="M183.821 145.878C183.011 145.878 182.354 145.221 182.354 144.411V92.791C182.354 91.9803 183.011 91.3247 183.821 91.3247C184.631 91.3247 185.287 91.9803 185.287 92.791V144.411C185.287 145.221 184.631 145.878 183.821 145.878Z" fill="#C0CBE2"/>
<path fill-rule="evenodd" clip-rule="evenodd" d="M175.684 145.878C174.874 145.878 174.218 145.221 174.218 144.411V92.791C174.218 91.9803 174.874 91.3247 175.684 91.3247C176.494 91.3247 177.15 91.9803 177.15 92.791V144.411C177.15 145.221 176.494 145.878 175.684 145.878Z" fill="#C0CBE2"/>
<path fill-rule="evenodd" clip-rule="evenodd" d="M134.369 73.5979H111.22C109.953 73.5979 108.925 72.5703 108.925 71.3032C108.925 70.0353 109.953 69.0077 111.22 69.0077H134.369C135.636 69.0077 136.664 70.0353 136.664 71.3032C136.664 72.5703 135.636 73.5979 134.369 73.5979Z" fill="#C1CAE7"/>
<path fill-rule="evenodd" clip-rule="evenodd" d="M134.369 83.6597H111.22C109.953 83.6597 108.925 82.632 108.925 81.365C108.925 80.0971 109.953 79.0695 111.22 79.0695H134.369C135.636 79.0695 136.664 80.0971 136.664 81.365C136.664 82.632 135.636 83.6597 134.369 83.6597Z" fill="#C1CAE7"/>
<path fill-rule="evenodd" clip-rule="evenodd" d="M134.369 93.7219H111.22C109.953 93.7219 108.925 92.6943 108.925 91.4264C108.925 90.1593 109.953 89.1317 111.22 89.1317H134.369C135.636 89.1317 136.664 90.1593 136.664 91.4264C136.664 92.6943 135.636 93.7219 134.369 93.7219Z" fill="#C1CAE7"/>
<path fill-rule="evenodd" clip-rule="evenodd" d="M134.369 103.784H111.22C109.953 103.784 108.925 102.756 108.925 101.489C108.925 100.221 109.953 99.1935 111.22 99.1935H134.369C135.636 99.1935 136.664 100.221 136.664 101.489C136.664 102.756 135.636 103.784 134.369 103.784Z" fill="#C1CAE7"/>
<path fill-rule="evenodd" clip-rule="evenodd" d="M134.369 113.845H111.22C109.953 113.845 108.925 112.818 108.925 111.551C108.925 110.283 109.953 109.255 111.22 109.255H134.369C135.636 109.255 136.664 110.283 136.664 111.551C136.664 112.818 135.636 113.845 134.369 113.845Z" fill="#C1CAE7"/>
<path fill-rule="evenodd" clip-rule="evenodd" d="M134.369 123.908H111.22C109.953 123.908 108.925 122.88 108.925 121.612C108.925 120.345 109.953 119.317 111.22 119.317H134.369C135.636 119.317 136.664 120.345 136.664 121.612C136.664 122.88 135.636 123.908 134.369 123.908Z" fill="#C1CAE7"/>
<path fill-rule="evenodd" clip-rule="evenodd" d="M134.369 133.969H111.22C109.953 133.969 108.925 132.942 108.925 131.675C108.925 130.407 109.953 129.379 111.22 129.379H134.369C135.636 129.379 136.664 130.407 136.664 131.675C136.664 132.942 135.636 133.969 134.369 133.969Z" fill="#C1CAE7"/>
<path fill-rule="evenodd" clip-rule="evenodd" d="M134.369 144.032H111.22C109.953 144.032 108.925 143.004 108.925 141.737C108.925 140.468 109.953 139.441 111.22 139.441H134.369C135.636 139.441 136.664 140.468 136.664 141.737C136.664 143.004 135.636 144.032 134.369 144.032Z" fill="#C1CAE7"/>
<path fill-rule="evenodd" clip-rule="evenodd" d="M76.3321 152.35H45.3568V91.2457C45.3568 88.4802 47.5985 86.2385 50.364 86.2385H71.3249C74.0904 86.2385 76.3321 88.4802 76.3321 91.2457V152.35Z" fill="#E0E8F6"/>
<path fill-rule="evenodd" clip-rule="evenodd" d="M70.467 99.4133H51.2215C50.1441 99.4133 49.2699 98.5399 49.2699 97.4616V97.3877C49.2699 96.3095 50.1441 95.4353 51.2215 95.4353H70.467C71.5452 95.4353 72.4186 96.3095 72.4186 97.3877V97.4616C72.4186 98.5399 71.5452 99.4133 70.467 99.4133Z" fill="#C1CAE7"/>
<path fill-rule="evenodd" clip-rule="evenodd" d="M70.467 108.133H51.2215C50.1441 108.133 49.2699 107.259 49.2699 106.181V106.107C49.2699 105.029 50.1441 104.155 51.2215 104.155H70.467C71.5452 104.155 72.4186 105.029 72.4186 106.107V106.181C72.4186 107.259 71.5452 108.133 70.467 108.133Z" fill="#C1CAE7"/>
<path fill-rule="evenodd" clip-rule="evenodd" d="M70.467 116.852H51.2215C50.1441 116.852 49.2699 115.979 49.2699 114.9V114.826C49.2699 113.748 50.1441 112.874 51.2215 112.874H70.467C71.5452 112.874 72.4186 113.748 72.4186 114.826V114.9C72.4186 115.979 71.5452 116.852 70.467 116.852Z" fill="#C1CAE7"/>
<path fill-rule="evenodd" clip-rule="evenodd" d="M70.467 125.571H51.2215C50.1441 125.571 49.2699 124.698 49.2699 123.619V123.546C49.2699 122.467 50.1441 121.593 51.2215 121.593H70.467C71.5452 121.593 72.4186 122.467 72.4186 123.546V123.619C72.4186 124.698 71.5452 125.571 70.467 125.571Z" fill="#C1CAE7"/>
<path fill-rule="evenodd" clip-rule="evenodd" d="M70.467 134.29H51.2215C50.1441 134.29 49.2699 133.416 49.2699 132.339V132.265C49.2699 131.187 50.1441 130.312 51.2215 130.312H70.467C71.5452 130.312 72.4186 131.187 72.4186 132.265V132.339C72.4186 133.416 71.5452 134.29 70.467 134.29Z" fill="#C1CAE7"/>
<path fill-rule="evenodd" clip-rule="evenodd" d="M70.467 143.009H51.2215C50.1441 143.009 49.2699 142.136 49.2699 141.058V140.984C49.2699 139.906 50.1441 139.032 51.2215 139.032H70.467C71.5452 139.032 72.4186 139.906 72.4186 140.984V141.058C72.4186 142.136 71.5452 143.009 70.467 143.009Z" fill="#C1CAE7"/>
<path fill-rule="evenodd" clip-rule="evenodd" d="M227.07 155.124H189.155V94.5522C189.155 91.4926 191.635 89.0131 194.694 89.0131H221.53C224.59 89.0131 227.07 91.4926 227.07 94.5522V155.124Z" fill="#E0E8F6"/>
<path fill-rule="evenodd" clip-rule="evenodd" d="M220.291 102.187H195.933C194.835 102.187 193.945 101.297 193.945 100.198C193.945 99.1004 194.835 98.2094 195.933 98.2094H220.291C221.39 98.2094 222.281 99.1004 222.281 100.198C222.281 101.297 221.39 102.187 220.291 102.187Z" fill="#C1CAE7"/>
<path fill-rule="evenodd" clip-rule="evenodd" d="M220.291 110.907H195.933C194.835 110.907 193.945 110.016 193.945 108.917C193.945 107.819 194.835 106.929 195.933 106.929H220.291C221.39 106.929 222.281 107.819 222.281 108.917C222.281 110.016 221.39 110.907 220.291 110.907Z" fill="#C1CAE7"/>
<path fill-rule="evenodd" clip-rule="evenodd" d="M220.291 119.626H195.933C194.835 119.626 193.945 118.736 193.945 117.637C193.945 116.538 194.835 115.648 195.933 115.648H220.291C221.39 115.648 222.281 116.538 222.281 117.637C222.281 118.736 221.39 119.626 220.291 119.626Z" fill="#C1CAE7"/>
<path fill-rule="evenodd" clip-rule="evenodd" d="M94.7719 89.1314C91.7372 89.1314 89.277 86.6712 89.277 83.6365V73.5618H68.9348V82.7518H74.2577C77.4306 82.7518 80.0025 85.3237 80.0025 88.4966V152.351H83.0356V116.261C83.0356 112.893 85.7658 110.164 89.1331 110.164H97.1365V89.1314H94.7719Z" fill="#D0DBF0"/>
<path fill-rule="evenodd" clip-rule="evenodd" d="M190.71 63.0571H179.705C179.06 63.0571 178.537 62.5348 178.537 61.8896V56.4694C178.537 55.8243 179.06 55.302 179.705 55.302H190.71C191.355 55.302 191.877 55.8243 191.877 56.4694V61.8896C191.877 62.5348 191.355 63.0571 190.71 63.0571Z" fill="#E0E8F6"/>
<path fill-rule="evenodd" clip-rule="evenodd" d="M187.282 53.1173H183.133V42.3324C183.133 41.8929 183.489 41.5361 183.928 41.5361H186.487C186.927 41.5361 187.282 41.8929 187.282 42.3324V53.1173Z" fill="#E0E8F6"/>
<path fill-rule="evenodd" clip-rule="evenodd" d="M197.575 162.521H75.5391C73.8156 162.521 72.4184 161.124 72.4184 159.4C72.4184 157.677 73.8156 156.279 75.5391 156.279H197.575C199.298 156.279 200.695 157.677 200.695 159.4C200.695 161.124 199.298 162.521 197.575 162.521Z" fill="#7E89A0"/>
<path fill-rule="evenodd" clip-rule="evenodd" d="M271.854 168.069C271.854 159.781 265.135 153.061 256.847 153.061H245.416H237.681H40.8583C38.4913 153.061 36.5726 151.143 36.5726 148.776C36.5726 146.409 38.4913 144.49 40.8583 144.49H42.1205V138.055H34.0119C25.7242 138.055 19.0048 144.773 19.0048 153.061C19.0048 161.35 25.7242 168.069 34.0119 168.069H241.839H252.561C254.929 168.069 256.847 169.988 256.847 172.354C256.847 174.721 254.929 176.64 252.561 176.64H244.537H223.442C221.664 176.64 220.223 178.081 220.223 179.858C220.223 181.636 221.664 183.076 223.442 183.076H257.024V183.067C265.23 182.971 271.854 176.297 271.854 168.069Z" fill="#919DB6"/>
<path fill-rule="evenodd" clip-rule="evenodd" d="M207.801 176.64H187.038C185.261 176.64 183.82 178.081 183.82 179.858C183.82 181.636 185.261 183.076 187.038 183.076H207.801C209.578 183.076 211.019 181.636 211.019 179.858C211.019 178.081 209.578 176.64 207.801 176.64Z" fill="#919DB6"/>
<path fill-rule="evenodd" clip-rule="evenodd" d="M193.429 113.753V118.347H197.668V115.874C197.668 114.117 196.245 112.693 194.488 112.693C193.903 112.693 193.429 113.168 193.429 113.753Z" fill="#E9E3D5"/>
<path fill-rule="evenodd" clip-rule="evenodd" d="M224.58 146.885C224.074 146.386 223.815 145.687 223.815 144.976V138.133C223.815 135.382 222.923 132.704 221.271 130.503L213.639 120.326C212.037 118.19 209.524 116.934 206.854 116.934H186.286C183.27 116.934 180.48 118.535 178.961 121.141L171.522 133.894L162.614 134.962C162.341 134.994 162.071 135.04 161.805 135.098L155.128 143.311V150.854C155.128 153.196 157.025 155.094 159.368 155.094H221.129C223.471 155.094 225.368 153.196 225.368 150.854V148.773C225.368 148.064 225.085 147.383 224.58 146.885Z" fill="#FFB545"/>
<path fill-rule="evenodd" clip-rule="evenodd" d="M224.583 146.887C224.075 146.387 223.815 145.688 223.815 144.976V142.374V138.133C223.815 135.491 222.975 132.775 221.271 130.503L213.639 120.326C212.764 119.161 211.619 118.26 210.325 117.678C209.146 119.152 209.062 121.29 210.246 122.87L215.176 129.441L210.818 133.894H215.307C217.636 133.894 219.562 135.761 219.575 138.089V138.133V144.976V145.004C219.578 145.776 218.707 146.237 218.091 145.773C216.141 144.305 213.718 143.434 211.095 143.434C206.161 143.434 201.935 146.515 200.235 150.854H197.669V121.174H193.429V150.854H176.499C174.86 147.114 171.125 144.493 166.787 144.493C162.45 144.493 158.718 147.114 157.079 150.854H155.128C155.128 153.196 157.025 155.094 159.368 155.094H221.129C223.471 155.094 225.369 153.196 225.369 150.854V148.854C225.369 148.122 225.103 147.401 224.583 146.887Z" fill="#FF7E40"/>
<path fill-rule="evenodd" clip-rule="evenodd" d="M184.878 139.194H189.117C189.703 139.194 190.178 138.719 190.178 138.135C190.178 137.549 189.703 137.074 189.117 137.074H184.878C184.293 137.074 183.819 137.549 183.819 138.135C183.819 138.719 184.293 139.194 184.878 139.194Z" fill="#35404A"/>
<path fill-rule="evenodd" clip-rule="evenodd" d="M201.837 139.194H206.077C206.663 139.194 207.138 138.719 207.138 138.135C207.138 137.549 206.663 137.074 206.077 137.074H201.837C201.252 137.074 200.778 137.549 200.778 138.135C200.778 138.719 201.252 139.194 201.837 139.194Z" fill="#35404A"/>
<path fill-rule="evenodd" clip-rule="evenodd" d="M182.623 123.277L176.43 133.894H193.428V121.173H186.286C184.783 121.173 183.38 121.979 182.623 123.277Z" fill="#87F8F4"/>
<path fill-rule="evenodd" clip-rule="evenodd" d="M214.699 128.806L210.247 122.87C209.446 121.801 208.189 121.174 206.854 121.174H197.668V133.894H212.154C213.911 133.894 215.334 132.47 215.334 130.714C215.334 130.025 215.112 129.356 214.699 128.806Z" fill="#87F8F4"/>
<path fill-rule="evenodd" clip-rule="evenodd" d="M220.281 138.134C219.111 138.134 218.161 139.083 218.161 140.255C218.161 141.424 219.111 142.374 220.281 142.374H223.814V138.134H220.281Z" fill="#C5324F"/>
<path fill-rule="evenodd" clip-rule="evenodd" d="M156.289 139.03C156.281 139.042 156.275 139.054 156.268 139.066C156.194 139.193 156.123 139.324 156.056 139.456C155.46 140.621 155.128 141.935 155.128 143.311H157.565C159.907 143.311 161.805 141.413 161.805 139.071V135.097C159.506 135.595 157.484 137.002 156.289 139.03Z" fill="#E9E3D5"/>
<path fill-rule="evenodd" clip-rule="evenodd" d="M166.787 162.514C162.696 162.514 159.368 159.185 159.368 155.094C159.368 151.002 162.696 147.674 166.787 147.674C170.879 147.674 174.207 151.002 174.207 155.094C174.207 159.185 170.879 162.514 166.787 162.514Z" fill="#596775"/>
<path fill-rule="evenodd" clip-rule="evenodd" d="M168.305 147.83C167.434 149.437 167.678 151.487 169.036 152.845L164.539 157.342C163.181 155.984 161.13 155.741 159.523 156.61C160.226 159.976 163.216 162.513 166.787 162.513C170.879 162.513 174.208 159.185 174.208 155.093C174.208 151.522 171.669 148.533 168.305 147.83Z" fill="#35404A"/>
<path fill-rule="evenodd" clip-rule="evenodd" d="M169.967 155.094C169.967 156.851 168.544 158.274 166.787 158.274C165.031 158.274 163.608 156.851 163.608 155.094C163.608 153.337 165.031 151.914 166.787 151.914C168.544 151.914 169.967 153.337 169.967 155.094Z" fill="#E9E3D5"/>
<path fill-rule="evenodd" clip-rule="evenodd" d="M211.095 162.514C207.003 162.514 203.675 159.185 203.675 155.094C203.675 151.002 207.003 147.674 211.095 147.674C215.187 147.674 218.515 151.002 218.515 155.094C218.515 159.185 215.187 162.514 211.095 162.514Z" fill="#596775"/>
<path fill-rule="evenodd" clip-rule="evenodd" d="M212.612 147.83C211.742 149.437 211.985 151.487 213.343 152.845L208.845 157.342C207.488 155.984 205.438 155.741 203.831 156.61C204.533 159.976 207.524 162.513 211.094 162.513C215.186 162.513 218.515 159.185 218.515 155.093C218.515 151.522 215.978 148.533 212.612 147.83Z" fill="#35404A"/>
<path fill-rule="evenodd" clip-rule="evenodd" d="M214.275 155.094C214.275 156.851 212.851 158.274 211.095 158.274C209.338 158.274 207.915 156.851 207.915 155.094C207.915 153.337 209.338 151.914 211.095 151.914C212.851 151.914 214.275 153.337 214.275 155.094Z" fill="#E9E3D5"/>
</g>
<mask id="mask2_8_1115" style="mask-type:luminance" maskUnits="userSpaceOnUse" x="4" y="0" width="278" height="278">
<path fill-rule="evenodd" clip-rule="evenodd" d="M143 0C66.2326 0 4 62.2318 4 139C4 215.768 66.2326 278 143 278C219.767 278 282 215.768 282 139" fill="white"/>
</mask>
<g mask="url(#mask2_8_1115)">
<path fill-rule="evenodd" clip-rule="evenodd" d="M146.24 134.875L134.98 144.327C133.067 145.933 130.214 145.683 128.608 143.77C127.002 141.856 127.251 139.004 129.164 137.398L141.517 127.029C142.827 125.93 144.78 126.1 145.88 127.41L146.796 128.503C148.402 130.416 148.154 133.269 146.24 134.875Z" fill="#DBAA79"/>
</g>
<mask id="mask3_8_1115" style="mask-type:luminance" maskUnits="userSpaceOnUse" x="4" y="0" width="278" height="278">
<path fill-rule="evenodd" clip-rule="evenodd" d="M143 0C66.2326 0 4 62.2318 4 139C4 215.768 66.2326 278 143 278C219.767 278 282 215.768 282 139" fill="white"/>
</mask>
<g mask="url(#mask3_8_1115)">
<path fill-rule="evenodd" clip-rule="evenodd" d="M145.843 132.88L133.084 143.589C131.584 144.848 129.348 144.653 128.09 143.153L127.694 142.681C126.435 141.182 126.63 138.946 128.129 137.687L140.889 126.977C142.388 125.718 144.623 125.914 145.882 127.414L146.279 127.886C147.537 129.385 147.342 131.621 145.843 132.88Z" fill="#EAC897"/>
</g>
<mask id="mask4_8_1115" style="mask-type:luminance" maskUnits="userSpaceOnUse" x="4" y="0" width="278" height="278">
<path fill-rule="evenodd" clip-rule="evenodd" d="M143 0C66.2326 0 4 62.2318 4 139C4 215.768 66.2326 278 143 278C219.767 278 282 215.768 282 139C282 62.2318 219.767 0 143 0Z" fill="white"/>
</mask>
<g mask="url(#mask4_8_1115)">
<path fill-rule="evenodd" clip-rule="evenodd" d="M100.604 179.849C100.436 180.527 98.5733 214.047 99.0811 214.215C99.5889 214.384 125.49 200.164 125.49 200.164L128.538 182.728L100.604 179.849Z" fill="#DBAA79"/>
</g>
<mask id="mask5_8_1115" style="mask-type:luminance" maskUnits="userSpaceOnUse" x="4" y="0" width="278" height="278">
<path fill-rule="evenodd" clip-rule="evenodd" d="M143 0C66.2326 0 4 62.2318 4 139C4 215.768 66.2326 278 143 278C219.767 278 282 215.768 282 139C282 62.2318 219.767 0 143 0Z" fill="white"/>
</mask>
<g mask="url(#mask5_8_1115)">
<path fill-rule="evenodd" clip-rule="evenodd" d="M135.479 177.479C134.632 179.51 133.394 198.988 124.306 209.644C113.766 222.003 106.699 220.987 105.175 221.326C104.5 222.676 103.292 224.827 102.025 227.019C99.71 231.028 95.6075 233.711 90.9988 234.14C90.4171 234.194 89.7832 234.267 89.093 234.361C83.6093 235.118 83.1674 237.917 79.2738 240.117C75.3802 242.318 70.9788 245.365 64.8837 242.318C57.9168 238.834 52.356 245.365 52.356 245.365L77.0731 202.366C77.0731 202.366 76.0567 173.754 80.9667 165.459C85.8759 157.164 101.62 141.589 101.62 141.589C101.62 141.589 112.286 150.562 94.6795 164.105C94.6795 169.522 94.3404 173.586 94.3404 173.586C94.3404 173.586 107.715 177.479 103.652 206.766C112.455 206.766 119.904 204.735 122.274 196.61C124.644 190.854 126.167 188.314 126.167 188.314C124.136 188.314 127.86 143.113 127.86 143.113L135.479 177.479Z" fill="#EAC897"/>
</g>
<mask id="mask6_8_1115" style="mask-type:luminance" maskUnits="userSpaceOnUse" x="4" y="0" width="278" height="278">
<path fill-rule="evenodd" clip-rule="evenodd" d="M143 0C66.2326 0 4 62.2318 4 139C4 215.768 66.2326 278 143 278C219.767 278 282 215.768 282 139" fill="white"/>
</mask>
<g mask="url(#mask6_8_1115)">
<path fill-rule="evenodd" clip-rule="evenodd" d="M128.974 196.64H98.2552C93.7622 196.64 90.1201 192.998 90.1201 188.504V112.311C90.1201 107.819 93.7622 104.176 98.2552 104.176H128.974C133.467 104.176 137.109 107.819 137.109 112.311V188.504C137.109 192.998 133.467 196.64 128.974 196.64Z" fill="#535565"/>
</g>
<mask id="mask7_8_1115" style="mask-type:luminance" maskUnits="userSpaceOnUse" x="4" y="0" width="278" height="278">
<path fill-rule="evenodd" clip-rule="evenodd" d="M143 0C66.2326 0 4 62.2318 4 139C4 215.768 66.2326 278 143 278C219.767 278 282 215.768 282 139" fill="white"/>
</mask>
<g mask="url(#mask7_8_1115)">
<path fill-rule="evenodd" clip-rule="evenodd" d="M127.216 194.257H100.013C95.8648 194.257 92.5023 190.894 92.5023 186.746V114.069C92.5023 109.922 95.8648 106.559 100.013 106.559H127.216C131.364 106.559 134.727 109.922 134.727 114.069V186.746C134.727 190.894 131.364 194.257 127.216 194.257Z" fill="#FFE3E0"/>
</g>
<mask id="mask8_8_1115" style="mask-type:luminance" maskUnits="userSpaceOnUse" x="4" y="0" width="278" height="278">
<path fill-rule="evenodd" clip-rule="evenodd" d="M143 0C66.2326 0 4 62.2318 4 139C4 215.768 66.2326 278 143 278C219.767 278 282 215.768 282 139" fill="white"/>
</mask>
<g mask="url(#mask8_8_1115)">
<path fill-rule="evenodd" clip-rule="evenodd" d="M127.216 194.257H100.013C95.8648 194.257 92.5023 190.894 92.5023 186.746V114.069C92.5023 109.922 95.8648 106.559 100.013 106.559H127.216C131.364 106.559 134.727 109.922 134.727 114.069V186.746C134.727 190.894 131.364 194.257 127.216 194.257Z" fill="#41BCAC"/>
</g>
<mask id="mask9_8_1115" style="mask-type:luminance" maskUnits="userSpaceOnUse" x="4" y="0" width="278" height="278">
<path fill-rule="evenodd" clip-rule="evenodd" d="M143 0C66.2326 0 4 62.2318 4 139C4 215.768 66.2326 278 143 278C219.767 278 282 215.768 282 139" fill="white"/>
</mask>
<g mask="url(#mask9_8_1115)">
<path fill-rule="evenodd" clip-rule="evenodd" d="M125.119 133.603C125.119 139.957 119.968 145.107 113.614 145.107C107.261 145.107 102.11 139.957 102.11 133.603C102.11 127.249 107.261 122.099 113.614 122.099C119.968 122.099 125.119 127.249 125.119 133.603Z" fill="white"/>
</g>
<mask id="mask10_8_1115" style="mask-type:luminance" maskUnits="userSpaceOnUse" x="4" y="0" width="278" height="278">
<path fill-rule="evenodd" clip-rule="evenodd" d="M143 0C66.2326 0 4 62.2318 4 139C4 215.768 66.2326 278 143 278C219.767 278 282 215.768 282 139" fill="white"/>
</mask>
<g mask="url(#mask10_8_1115)">
<path d="M109.051 128.955C110.236 127.817 111.843 127.117 113.614 127.117C115.387 127.117 116.994 127.817 118.178 128.955" stroke="#41BCAC" stroke-width="1.718"/>
</g>
<mask id="mask11_8_1115" style="mask-type:luminance" maskUnits="userSpaceOnUse" x="4" y="0" width="278" height="278">
<path fill-rule="evenodd" clip-rule="evenodd" d="M143 0C66.2326 0 4 62.2318 4 139C4 215.768 66.2326 278 143 278C219.767 278 282 215.768 282 139" fill="white"/>
</mask>
<g mask="url(#mask11_8_1115)">
<path d="M118.67 137.93C117.462 139.375 115.646 140.295 113.615 140.295C111.584 140.295 109.767 139.375 108.559 137.93" stroke="#41BCAC" stroke-width="1.718"/>
</g>
<mask id="mask12_8_1115" style="mask-type:luminance" maskUnits="userSpaceOnUse" x="4" y="0" width="278" height="278">
<path fill-rule="evenodd" clip-rule="evenodd" d="M143 0C66.2326 0 4 62.2318 4 139C4 215.768 66.2326 278 143 278C219.767 278 282 215.768 282 139" fill="white"/>
</mask>
<g mask="url(#mask12_8_1115)">
<path d="M107.167 132.347C107.074 132.785 107.025 133.24 107.025 133.705C107.025 135.314 107.602 136.786 108.558 137.93" stroke="#41BCAC" stroke-width="1.718"/>
</g>
<mask id="mask13_8_1115" style="mask-type:luminance" maskUnits="userSpaceOnUse" x="4" y="0" width="278" height="278">
<path fill-rule="evenodd" clip-rule="evenodd" d="M143 0C66.2326 0 4 62.2318 4 139C4 215.768 66.2326 278 143 278C219.767 278 282 215.768 282 139" fill="white"/>
</mask>
<g mask="url(#mask13_8_1115)">
<path d="M118.67 137.93C119.627 136.786 120.204 135.314 120.204 133.706C120.204 133.24 120.154 132.786 120.063 132.347" stroke="#41BCAC" stroke-width="1.718"/>
</g>
<mask id="mask14_8_1115" style="mask-type:luminance" maskUnits="userSpaceOnUse" x="4" y="0" width="278" height="278">
<path fill-rule="evenodd" clip-rule="evenodd" d="M143 0C66.2326 0 4 62.2318 4 139C4 215.768 66.2326 278 143 278C219.767 278 282 215.768 282 139" fill="white"/>
</mask>
<g mask="url(#mask14_8_1115)">
<path d="M109.051 128.955C108.115 129.855 107.444 131.028 107.167 132.347" stroke="#41BCAC" stroke-width="1.718"/>
</g>
<mask id="mask15_8_1115" style="mask-type:luminance" maskUnits="userSpaceOnUse" x="4" y="0" width="278" height="278">
<path fill-rule="evenodd" clip-rule="evenodd" d="M143 0C66.2326 0 4 62.2318 4 139C4 215.768 66.2326 278 143 278C219.767 278 282 215.768 282 139" fill="white"/>
</mask>
<g mask="url(#mask15_8_1115)">
<path d="M118.178 128.955C119.115 129.855 119.786 131.028 120.063 132.347" stroke="#41BCAC" stroke-width="1.718"/>
</g>
<mask id="mask16_8_1115" style="mask-type:luminance" maskUnits="userSpaceOnUse" x="4" y="0" width="278" height="278">
<path fill-rule="evenodd" clip-rule="evenodd" d="M143 0C66.2326 0 4 62.2318 4 139C4 215.768 66.2326 278 143 278C219.767 278 282 215.768 282 139" fill="white"/>
</mask>
<g mask="url(#mask16_8_1115)">
<path d="M113.765 135.248C113.715 135.247 113.665 135.244 113.615 135.244C113.564 135.244 113.514 135.247 113.464 135.248" stroke="#41BCAC" stroke-width="1.718"/>
</g>
<mask id="mask17_8_1115" style="mask-type:luminance" maskUnits="userSpaceOnUse" x="4" y="0" width="278" height="278">
<path fill-rule="evenodd" clip-rule="evenodd" d="M143 0C66.2326 0 4 62.2318 4 139C4 215.768 66.2326 278 143 278C219.767 278 282 215.768 282 139" fill="white"/>
</mask>
<g mask="url(#mask17_8_1115)">
<path d="M118.67 137.93C117.718 136.367 115.884 135.296 113.765 135.247" stroke="#41BCAC" stroke-width="1.718"/>
</g>
<mask id="mask18_8_1115" style="mask-type:luminance" maskUnits="userSpaceOnUse" x="4" y="0" width="278" height="278">
<path fill-rule="evenodd" clip-rule="evenodd" d="M143 0C66.2326 0 4 62.2318 4 139C4 215.768 66.2326 278 143 278C219.767 278 282 215.768 282 139" fill="white"/>
</mask>
<g mask="url(#mask18_8_1115)">
<path d="M113.464 135.248C111.346 135.297 109.511 136.367 108.559 137.93" stroke="#41BCAC" stroke-width="1.718"/>
</g>
<mask id="mask19_8_1115" style="mask-type:luminance" maskUnits="userSpaceOnUse" x="4" y="0" width="278" height="278">
<path fill-rule="evenodd" clip-rule="evenodd" d="M143 0C66.2326 0 4 62.2318 4 139C4 215.768 66.2326 278 143 278C219.767 278 282 215.768 282 139" fill="white"/>
</mask>
<g mask="url(#mask19_8_1115)">
<path d="M113.765 135.248C116.871 135.209 119.446 133.978 120.063 132.347" stroke="#41BCAC" stroke-width="1.718"/>
</g>
<mask id="mask20_8_1115" style="mask-type:luminance" maskUnits="userSpaceOnUse" x="4" y="0" width="278" height="278">
<path fill-rule="evenodd" clip-rule="evenodd" d="M143 0C66.2326 0 4 62.2318 4 139C4 215.768 66.2326 278 143 278C219.767 278 282 215.768 282 139" fill="white"/>
</mask>
<g mask="url(#mask20_8_1115)">
<path d="M113.765 135.248C113.715 135.248 113.665 135.249 113.615 135.249C113.564 135.249 113.514 135.248 113.464 135.248" stroke="#41BCAC" stroke-width="1.718"/>
</g>
<mask id="mask21_8_1115" style="mask-type:luminance" maskUnits="userSpaceOnUse" x="4" y="0" width="278" height="278">
<path fill-rule="evenodd" clip-rule="evenodd" d="M143 0C66.2326 0 4 62.2318 4 139C4 215.768 66.2326 278 143 278C219.767 278 282 215.768 282 139" fill="white"/>
</mask>
<g mask="url(#mask21_8_1115)">
<path d="M113.464 135.248C110.359 135.209 107.784 133.978 107.167 132.347" stroke="#41BCAC" stroke-width="1.718"/>
</g>
<mask id="mask22_8_1115" style="mask-type:luminance" maskUnits="userSpaceOnUse" x="4" y="0" width="278" height="278">
<path fill-rule="evenodd" clip-rule="evenodd" d="M143 0C66.2326 0 4 62.2318 4 139C4 215.768 66.2326 278 143 278C219.767 278 282 215.768 282 139" fill="white"/>
</mask>
<g mask="url(#mask22_8_1115)">
<path fill-rule="evenodd" clip-rule="evenodd" d="M120.394 109.86H106.836C105.138 109.86 103.762 108.485 103.762 106.787V105.422H123.467V106.787C123.467 108.485 122.091 109.86 120.394 109.86Z" fill="#535565"/>
</g>
<mask id="mask23_8_1115" style="mask-type:luminance" maskUnits="userSpaceOnUse" x="4" y="0" width="278" height="278">
<path fill-rule="evenodd" clip-rule="evenodd" d="M143 0C66.2326 0 4 62.2318 4 139C4 215.768 66.2326 278 143 278C219.767 278 282 215.768 282 139" fill="white"/>
</mask>
<g mask="url(#mask23_8_1115)">
<path fill-rule="evenodd" clip-rule="evenodd" d="M112.782 184.392C106.279 182.933 102.2 176.479 103.657 169.986C103.721 169.7 103.973 169.5 104.262 169.499L107.035 169.482C107.337 169.479 107.597 169.695 107.652 169.991L108.232 173.105C108.283 173.378 108.146 173.652 107.898 173.776L106.079 174.689C106.565 176.883 107.826 178.844 109.565 180.192L111.168 178.937C111.387 178.766 111.693 178.759 111.918 178.923L114.484 180.777C114.729 180.955 114.812 181.281 114.682 181.553L113.481 184.054C113.355 184.315 113.066 184.455 112.782 184.392Z" fill="white"/>
</g>
<mask id="mask24_8_1115" style="mask-type:luminance" maskUnits="userSpaceOnUse" x="4" y="0" width="278" height="278">
<path fill-rule="evenodd" clip-rule="evenodd" d="M143 0C66.2326 0 4 62.2318 4 139C4 215.768 66.2326 278 143 278C219.767 278 282 215.768 282 139" fill="white"/>
</mask>
<g mask="url(#mask24_8_1115)">
<path fill-rule="evenodd" clip-rule="evenodd" d="M114.855 174.626C114.855 175.273 114.33 175.798 113.684 175.798C113.036 175.798 112.511 175.273 112.511 174.626C112.511 173.979 113.036 173.454 113.684 173.454C114.33 173.454 114.855 173.979 114.855 174.626Z" fill="white"/>
</g>
<mask id="mask25_8_1115" style="mask-type:luminance" maskUnits="userSpaceOnUse" x="4" y="0" width="278" height="278">
<path fill-rule="evenodd" clip-rule="evenodd" d="M143 0C66.2326 0 4 62.2318 4 139C4 215.768 66.2326 278 143 278C219.767 278 282 215.768 282 139" fill="white"/>
</mask>
<g mask="url(#mask25_8_1115)">
<path fill-rule="evenodd" clip-rule="evenodd" d="M118.621 174.626C118.621 175.273 118.097 175.798 117.45 175.798C116.802 175.798 116.278 175.273 116.278 174.626C116.278 173.979 116.802 173.454 117.45 173.454C118.097 173.454 118.621 173.979 118.621 174.626Z" fill="white"/>
</g>
<mask id="mask26_8_1115" style="mask-type:luminance" maskUnits="userSpaceOnUse" x="4" y="0" width="278" height="278">
<path fill-rule="evenodd" clip-rule="evenodd" d="M143 0C66.2326 0 4 62.2318 4 139C4 215.768 66.2326 278 143 278C219.767 278 282 215.768 282 139" fill="white"/>
</mask>
<g mask="url(#mask26_8_1115)">
<path fill-rule="evenodd" clip-rule="evenodd" d="M122.388 174.626C122.388 175.273 121.863 175.798 121.216 175.798C120.569 175.798 120.044 175.273 120.044 174.626C120.044 173.979 120.569 173.454 121.216 173.454C121.863 173.454 122.388 173.979 122.388 174.626Z" fill="white"/>
</g>
<mask id="mask27_8_1115" style="mask-type:luminance" maskUnits="userSpaceOnUse" x="4" y="0" width="278" height="278">
<path fill-rule="evenodd" clip-rule="evenodd" d="M143 0C66.2326 0 4 62.2318 4 139C4 215.768 66.2326 278 143 278C219.767 278 282 215.768 282 139" fill="white"/>
</mask>
<g mask="url(#mask27_8_1115)">
<path fill-rule="evenodd" clip-rule="evenodd" d="M125.913 154.004H102.091C101.513 154.004 101.045 153.536 101.045 152.958C101.045 152.381 101.513 151.914 102.091 151.914H125.913C126.489 151.914 126.957 152.381 126.957 152.958C126.957 153.536 126.489 154.004 125.913 154.004Z" fill="white"/>
</g>
<mask id="mask28_8_1115" style="mask-type:luminance" maskUnits="userSpaceOnUse" x="4" y="0" width="278" height="278">
<path fill-rule="evenodd" clip-rule="evenodd" d="M143 0C66.2326 0 4 62.2318 4 139C4 215.768 66.2326 278 143 278C219.767 278 282 215.768 282 139" fill="white"/>
</mask>
<g mask="url(#mask28_8_1115)">
<path fill-rule="evenodd" clip-rule="evenodd" d="M120.757 158.85H107.246C106.669 158.85 106.201 158.383 106.201 157.805C106.201 157.228 106.669 156.76 107.246 156.76H120.757C121.334 156.76 121.802 157.228 121.802 157.805C121.802 158.383 121.334 158.85 120.757 158.85Z" fill="white"/>
</g>
<mask id="mask29_8_1115" style="mask-type:luminance" maskUnits="userSpaceOnUse" x="4" y="0" width="278" height="278">
<path fill-rule="evenodd" clip-rule="evenodd" d="M143 0C66.2326 0 4 62.2318 4 139C4 215.768 66.2326 278 143 278C219.767 278 282 215.768 282 139C282 62.2318 219.767 0 143 0Z" fill="white"/>
</mask>
<g mask="url(#mask29_8_1115)">
<path fill-rule="evenodd" clip-rule="evenodd" d="M88.7153 173.222C104.503 176.194 105.296 187.758 104.366 206.865C89.3741 204.949 86.5106 187.183 86.5106 187.183L88.7153 173.222Z" fill="#EAC897"/>
</g>
<mask id="mask30_8_1115" style="mask-type:luminance" maskUnits="userSpaceOnUse" x="4" y="0" width="278" height="278">
<path fill-rule="evenodd" clip-rule="evenodd" d="M143 0C66.2326 0 4 62.2318 4 139C4 215.768 66.2326 278 143 278C219.767 278 282 215.768 282 139" fill="white"/>
</mask>
<g mask="url(#mask30_8_1115)">
<path fill-rule="evenodd" clip-rule="evenodd" d="M79.2458 169.961C82.8285 152.509 96.3605 141.287 96.3605 141.287C96.3605 141.287 107.107 151.585 90.218 166.013C90.218 172.223 90.3409 173.871 90.3409 173.871" fill="#EAC897"/>
</g>
<mask id="mask31_8_1115" style="mask-type:luminance" maskUnits="userSpaceOnUse" x="4" y="0" width="278" height="278">
<path fill-rule="evenodd" clip-rule="evenodd" d="M143 0C66.2326 0 4 62.2318 4 139C4 215.768 66.2326 278 143 278C219.767 278 282 215.768 282 139" fill="white"/>
</mask>
<g mask="url(#mask31_8_1115)">
<path fill-rule="evenodd" clip-rule="evenodd" d="M138.016 159.948H132.941C130.306 159.948 128.171 157.813 128.171 155.178C128.171 152.543 130.306 150.408 132.941 150.408H138.016C140.651 150.408 142.787 152.543 142.787 155.178C142.787 157.813 140.651 159.948 138.016 159.948Z" fill="#EAC897"/>
</g>
<mask id="mask32_8_1115" style="mask-type:luminance" maskUnits="userSpaceOnUse" x="4" y="0" width="278" height="278">
<path fill-rule="evenodd" clip-rule="evenodd" d="M143 0C66.2326 0 4 62.2318 4 139C4 215.768 66.2326 278 143 278C219.767 278 282 215.768 282 139" fill="white"/>
</mask>
<g mask="url(#mask32_8_1115)">
<path fill-rule="evenodd" clip-rule="evenodd" d="M136.103 170.783H132.549C130.131 170.783 128.17 168.823 128.17 166.406V165.62C128.17 163.202 130.131 161.243 132.549 161.243H136.103C138.521 161.243 140.481 163.202 140.481 165.62V166.406C140.481 168.823 138.521 170.783 136.103 170.783Z" fill="#EAC897"/>
</g>
<mask id="mask33_8_1115" style="mask-type:luminance" maskUnits="userSpaceOnUse" x="4" y="0" width="278" height="278">
<path fill-rule="evenodd" clip-rule="evenodd" d="M143 0C66.2326 0 4 62.2318 4 139C4 215.768 66.2326 278 143 278C219.767 278 282 215.768 282 139" fill="white"/>
</mask>
<g mask="url(#mask33_8_1115)">
<path fill-rule="evenodd" clip-rule="evenodd" d="M137.262 182.294H136.56C133.926 182.294 131.79 180.16 131.79 177.524C131.79 174.89 133.926 172.755 136.56 172.755H137.262C139.897 172.755 142.032 174.89 142.032 177.524C142.032 180.16 139.897 182.294 137.262 182.294Z" fill="#EAC897"/>
</g>
<mask id="mask34_8_1115" style="mask-type:luminance" maskUnits="userSpaceOnUse" x="4" y="0" width="278" height="278">
<path fill-rule="evenodd" clip-rule="evenodd" d="M143 0C66.2326 0 4 62.2318 4 139C4 215.768 66.2326 278 143 278C219.767 278 282 215.768 282 139" fill="white"/>
</mask>
<g mask="url(#mask34_8_1115)">
<path fill-rule="evenodd" clip-rule="evenodd" d="M134.203 158.718C134.25 158.719 134.297 158.719 134.343 158.719C134.919 158.71 135.173 158.017 134.778 157.597C134.184 156.964 133.819 156.115 133.819 155.178C133.819 154.241 134.184 153.391 134.778 152.759C135.169 152.343 134.926 151.648 134.355 151.637C134.334 151.637 134.313 151.637 134.291 151.637C132.334 151.637 130.747 153.225 130.75 155.184C130.753 157.067 132.32 158.671 134.203 158.718Z" fill="#ECDBD0"/>
</g>
<mask id="mask35_8_1115" style="mask-type:luminance" maskUnits="userSpaceOnUse" x="4" y="0" width="278" height="278">
<path fill-rule="evenodd" clip-rule="evenodd" d="M143 0C66.2326 0 4 62.2318 4 139C4 215.768 66.2326 278 143 278C219.767 278 282 215.768 282 139" fill="white"/>
</mask>
<g mask="url(#mask35_8_1115)">
<path fill-rule="evenodd" clip-rule="evenodd" d="M133.783 169.561C133.997 169.569 134.206 169.556 134.409 169.525C134.81 169.466 134.951 168.979 134.645 168.714C133.891 168.061 133.417 167.095 133.424 166.019C133.432 164.943 133.92 163.985 134.682 163.343C134.988 163.083 134.862 162.593 134.466 162.528C134.289 162.498 134.107 162.482 133.921 162.48C131.964 162.468 130.367 164.045 130.356 166.002C130.345 167.886 131.901 169.501 133.783 169.561Z" fill="#ECDBD0"/>
</g>
<mask id="mask36_8_1115" style="mask-type:luminance" maskUnits="userSpaceOnUse" x="4" y="0" width="278" height="278">
<path fill-rule="evenodd" clip-rule="evenodd" d="M143 0C66.2326 0 4 62.2318 4 139C4 215.768 66.2326 278 143 278C219.767 278 282 215.768 282 139" fill="white"/>
</mask>
<g mask="url(#mask36_8_1115)">
<path fill-rule="evenodd" clip-rule="evenodd" d="M135.857 180.333C136.365 180.457 136.856 180.438 137.303 180.314C137.477 180.265 137.507 180.036 137.362 179.932C136.624 179.405 136.149 178.536 136.168 177.561C136.19 176.431 137.811 175.557 137.832 175.028C137.848 174.614 137.045 174.709 136.603 174.721C134.954 174.761 133.605 176.057 133.704 177.743C133.776 178.969 134.665 180.042 135.857 180.333Z" fill="#ECDBD0"/>
</g>
<mask id="mask37_8_1115" style="mask-type:luminance" maskUnits="userSpaceOnUse" x="4" y="0" width="278" height="278">
<path fill-rule="evenodd" clip-rule="evenodd" d="M143 0C66.2326 0 4 62.2318 4 139C4 215.768 66.2326 278 143 278C219.767 278 282 215.768 282 139C282 62.2318 219.767 0 143 0Z" fill="white"/>
</mask>
<g mask="url(#mask37_8_1115)">
<path fill-rule="evenodd" clip-rule="evenodd" d="M94.6448 240.324L64.7654 216.959L69.1451 211.357L99.0245 234.722L94.6448 240.324Z" fill="#ECECEC"/>
</g>
<mask id="mask38_8_1115" style="mask-type:luminance" maskUnits="userSpaceOnUse" x="4" y="0" width="278" height="278">
<path fill-rule="evenodd" clip-rule="evenodd" d="M143 0C66.2326 0 4 62.2318 4 139C4 215.768 66.2326 278 143 278C219.767 278 282 215.768 282 139C282 62.2318 219.767 0 143 0Z" fill="white"/>
</mask>
<g mask="url(#mask38_8_1115)">
<path fill-rule="evenodd" clip-rule="evenodd" d="M79.5947 266.631L42.8617 237.907L61.3382 214.279L98.0712 243.004L79.5947 266.631Z" fill="#535565"/>
</g>
<mask id="mask39_8_1115" style="mask-type:luminance" maskUnits="userSpaceOnUse" x="4" y="0" width="278" height="278">
<path fill-rule="evenodd" clip-rule="evenodd" d="M143 0C66.2326 0 4 62.2318 4 139C4 215.768 66.2326 278 143 278C219.767 278 282 215.768 282 139C282 62.2318 219.767 0 143 0Z" fill="white"/>
</mask>
<g mask="url(#mask39_8_1115)">
<path fill-rule="evenodd" clip-rule="evenodd" d="M74.4569 224.537L64.1042 216.441L68.4839 210.84L78.8366 218.936L74.4569 224.537Z" fill="#CFCFCF"/>
</g>
<mask id="mask40_8_1115" style="mask-type:luminance" maskUnits="userSpaceOnUse" x="4" y="0" width="278" height="278">
<path fill-rule="evenodd" clip-rule="evenodd" d="M143 0C66.2326 0 4 62.2318 4 139C4 215.768 66.2326 278 143 278C219.767 278 282 215.768 282 139C282 62.2318 219.767 0 143 0Z" fill="white"/>
</mask>
<g mask="url(#mask40_8_1115)">
<path fill-rule="evenodd" clip-rule="evenodd" d="M54.1096 246.904L42.8458 238.096L61.3224 214.468L72.587 223.276L54.1096 246.904Z" fill="#38414A"/>
</g>
<mask id="mask41_8_1115" style="mask-type:luminance" maskUnits="userSpaceOnUse" x="4" y="0" width="278" height="278">
<path fill-rule="evenodd" clip-rule="evenodd" d="M143 0C66.2326 0 4 62.2318 4 139C4 215.768 66.2326 278 143 278C219.767 278 282 215.768 282 139" fill="white"/>
</mask>
<g mask="url(#mask41_8_1115)">
<path fill-rule="evenodd" clip-rule="evenodd" d="M94.5133 142.993C94.5133 142.993 95.8174 145.16 95.8174 145.858C95.8174 146.557 91.1749 151.824 89.7954 152.289C89.253 152.473 86.5317 152.761 86.5317 152.761C86.5317 152.761 90.5996 146.386 94.5133 142.993Z" fill="#ECDBD0"/>
</g>
</g>
<defs>
<filter id="filter0_d_8_1115" x="0" y="0.00012207" width="286" height="286" filterUnits="userSpaceOnUse" color-interpolation-filters="sRGB">
<feFlood flood-opacity="0" result="BackgroundImageFix"/>
<feColorMatrix in="SourceAlpha" type="matrix" values="0 0 0 0 0 0 0 0 0 0 0 0 0 0 0 0 0 0 127 0" result="hardAlpha"/>
<feOffset dy="4"/>
<feGaussianBlur stdDeviation="2"/>
<feComposite in2="hardAlpha" operator="out"/>
<feColorMatrix type="matrix" values="0 0 0 0 0 0 0 0 0 0 0 0 0 0 0 0 0 0 0.25 0"/>
<feBlend mode="normal" in2="BackgroundImageFix" result="effect1_dropShadow_8_1115"/>
<feBlend mode="normal" in="SourceGraphic" in2="effect1_dropShadow_8_1115" result="shape"/>
</filter>
</defs>
</svg>
